; Drill file
; Format: 2.4 (00.0000)
M48
INCH
T01C0.028
T02C0.033
T03C0.034
T04C0.118
T05C0.197
%
G05
G90
T01
X006070Y020660
X006070Y021840
X004890Y023120
X006560Y024400
X008430Y023120
X009020Y021840
X010200Y020660
X009810Y024400
X011180Y026770
X014040Y026070
X014040Y023110
X020430Y025590
X021420Y025590
X022400Y025590
X023390Y025590
X025350Y025590
X026340Y025590
X027320Y025590
X028310Y025590
X029290Y025590
X030280Y025590
X032240Y025590
X033230Y025590
X034210Y025590
X037170Y025590
X039330Y024410
X039330Y022440
X037170Y021160
X042280Y022440
X042280Y024410
X042870Y019880
X042870Y018310
X045830Y018310
X045830Y019880
X036770Y032680
X035980Y032680
X035200Y032680
X034410Y032680
X033620Y032680
X032830Y032680
X032050Y032680
X031260Y032680
X030470Y032680
X029690Y032680
X028900Y032680
X028110Y032680
X027320Y032680
X026540Y032680
X007930Y026770
T02
X037170Y028740
X037170Y029920
X039720Y029920
X039720Y028740
X042680Y028740
T03
X042680Y029920
T04
X032830Y001970
X045040Y022440
X001730Y033460
T05
X003310Y013390
M30
