%FSLAX32Y32*%
%MOMM*%
%LNBESTUECKUNG2*%
G71*
G01*
%ADD10C, 0.20*%
%ADD11C, 0.50*%
%ADD12C, 0.44*%
%ADD13C, 1.00*%
%ADD14C, 0.33*%
%ADD15C, 0.32*%
%ADD16C, 0.24*%
%LPD*%
G54D10*
X0Y0D02*
X12000Y0D01*
X12000Y9000D01*
X0Y9000D01*
X0Y0D01*
G54D11*
G75*
G01X9107Y2113D02*
G03X9107Y2113I350J0D01*
G01*
G54D11*
G75*
G01X9107Y4013D02*
G03X9107Y4013I350J0D01*
G01*
G54D11*
G75*
G01X7507Y4013D02*
G03X7507Y4013I350J0D01*
G01*
G54D11*
G75*
G01X5907Y4013D02*
G03X5907Y4013I350J0D01*
G01*
G54D11*
G75*
G01X5907Y2113D02*
G03X5907Y2113I350J0D01*
G01*
G54D11*
G75*
G01X2657Y4250D02*
G03X2657Y3750I0J-250D01*
G01*
G54D11*
G75*
G01X3657Y3750D02*
G03X3657Y4250I0J250D01*
G01*
G54D12*
X10904Y7096D02*
X11117Y7096D01*
G54D12*
X11011Y7184D02*
X11011Y7007D01*
G54D12*
X629Y6696D02*
X842Y6696D01*
G54D12*
X736Y6784D02*
X736Y6607D01*
G54D13*
X10707Y813D02*
X2257Y813D01*
X1207Y1863D01*
X1207Y2363D01*
X1457Y2613D01*
X1457Y4363D01*
X2157Y5063D01*
X10657Y5063D01*
X10707Y5013D01*
X10707Y813D01*
G54D14*
X9130Y7171D02*
X9290Y7171D01*
G54D14*
X9210Y7237D02*
X9210Y7104D01*
G54D15*
X3486Y4409D02*
X3472Y4387D01*
X3446Y4376D01*
X3419Y4376D01*
X3392Y4387D01*
X3379Y4409D01*
X3379Y4431D01*
X3392Y4453D01*
X3419Y4464D01*
X3446Y4464D01*
X3472Y4476D01*
X3486Y4498D01*
X3486Y4520D01*
X3472Y4542D01*
X3446Y4553D01*
X3419Y4553D01*
X3392Y4542D01*
X3379Y4520D01*
G54D15*
X3263Y4376D02*
X3263Y4553D01*
G54D15*
X3316Y4553D02*
X3210Y4553D01*
G54D15*
X3041Y4520D02*
X3041Y4409D01*
X3054Y4387D01*
X3081Y4376D01*
X3108Y4376D01*
X3134Y4387D01*
X3148Y4409D01*
X3148Y4520D01*
X3134Y4542D01*
X3108Y4553D01*
X3081Y4553D01*
X3054Y4542D01*
X3041Y4520D01*
G54D15*
X2978Y4376D02*
X2978Y4553D01*
X2912Y4553D01*
X2885Y4542D01*
X2872Y4520D01*
X2872Y4498D01*
X2885Y4476D01*
X2912Y4464D01*
X2978Y4464D01*
G54D15*
X3512Y2559D02*
X3499Y2537D01*
X3472Y2526D01*
X3446Y2526D01*
X3419Y2537D01*
X3406Y2559D01*
X3406Y2581D01*
X3419Y2603D01*
X3446Y2614D01*
X3472Y2614D01*
X3499Y2626D01*
X3512Y2648D01*
X3512Y2670D01*
X3499Y2692D01*
X3472Y2703D01*
X3446Y2703D01*
X3419Y2692D01*
X3406Y2670D01*
G54D15*
X3290Y2526D02*
X3290Y2703D01*
G54D15*
X3344Y2703D02*
X3237Y2703D01*
G54D15*
X3174Y2526D02*
X3108Y2703D01*
X3041Y2526D01*
G54D15*
X3148Y2592D02*
X3068Y2592D01*
G54D15*
X2926Y2614D02*
X2886Y2592D01*
X2873Y2570D01*
X2873Y2526D01*
G54D15*
X2980Y2526D02*
X2980Y2703D01*
X2913Y2703D01*
X2886Y2692D01*
X2873Y2670D01*
X2873Y2648D01*
X2886Y2626D01*
X2913Y2614D01*
X2980Y2614D01*
G54D15*
X2757Y2526D02*
X2757Y2703D01*
G54D15*
X2810Y2703D02*
X2704Y2703D01*
G54D16*
X7442Y4248D02*
X7512Y4248D01*
X7512Y4381D01*
X7442Y4381D01*
G54D16*
X7512Y4315D02*
X7442Y4315D01*
G54D16*
X7395Y4248D02*
X7395Y4381D01*
X7315Y4248D01*
X7315Y4381D01*
G54D16*
X7228Y4248D02*
X7228Y4381D01*
G54D16*
X7268Y4381D02*
X7188Y4381D01*
G54D16*
X7071Y4248D02*
X7141Y4248D01*
X7141Y4381D01*
X7071Y4381D01*
G54D16*
X7141Y4315D02*
X7071Y4315D01*
G54D16*
X6984Y4315D02*
X6954Y4298D01*
X6944Y4281D01*
X6944Y4248D01*
G54D16*
X7024Y4248D02*
X7024Y4381D01*
X6974Y4381D01*
X6954Y4373D01*
X6944Y4356D01*
X6944Y4340D01*
X6954Y4323D01*
X6974Y4315D01*
X7024Y4315D01*
G54D16*
X9057Y4381D02*
X9057Y4248D01*
X8987Y4248D01*
G54D16*
X8870Y4248D02*
X8940Y4248D01*
X8940Y4381D01*
X8870Y4381D01*
G54D16*
X8940Y4315D02*
X8870Y4315D01*
G54D16*
X8823Y4248D02*
X8823Y4381D01*
X8753Y4381D01*
G54D16*
X8823Y4315D02*
X8753Y4315D01*
G54D16*
X8666Y4248D02*
X8666Y4381D01*
G54D16*
X8706Y4381D02*
X8626Y4381D01*
G54D16*
X5722Y4315D02*
X5692Y4298D01*
X5682Y4281D01*
X5682Y4248D01*
G54D16*
X5762Y4248D02*
X5762Y4381D01*
X5712Y4381D01*
X5692Y4373D01*
X5682Y4356D01*
X5682Y4340D01*
X5692Y4323D01*
X5712Y4315D01*
X5762Y4315D01*
G54D16*
X5635Y4248D02*
X5635Y4381D01*
G54D16*
X5548Y4315D02*
X5508Y4315D01*
X5508Y4273D01*
X5518Y4256D01*
X5538Y4248D01*
X5558Y4248D01*
X5578Y4256D01*
X5588Y4273D01*
X5588Y4356D01*
X5578Y4373D01*
X5558Y4381D01*
X5538Y4381D01*
X5518Y4373D01*
X5508Y4356D01*
G54D16*
X5461Y4248D02*
X5461Y4381D01*
G54D16*
X5381Y4248D02*
X5381Y4381D01*
G54D16*
X5461Y4315D02*
X5381Y4315D01*
G54D16*
X5294Y4248D02*
X5294Y4381D01*
G54D16*
X5334Y4381D02*
X5254Y4381D01*
G54D16*
X9407Y2548D02*
X9407Y2681D01*
X9357Y2598D01*
X9307Y2681D01*
X9307Y2548D01*
G54D16*
X9190Y2548D02*
X9260Y2548D01*
X9260Y2681D01*
X9190Y2681D01*
G54D16*
X9260Y2615D02*
X9190Y2615D01*
G54D16*
X9143Y2548D02*
X9143Y2681D01*
X9063Y2548D01*
X9063Y2681D01*
G54D16*
X9016Y2681D02*
X9016Y2573D01*
X9006Y2556D01*
X8986Y2548D01*
X8966Y2548D01*
X8946Y2556D01*
X8936Y2573D01*
X8936Y2681D01*
G54D16*
X6087Y2548D02*
X6157Y2548D01*
X6157Y2681D01*
X6087Y2681D01*
G54D16*
X6157Y2615D02*
X6087Y2615D01*
G54D16*
X6040Y2681D02*
X5940Y2548D01*
G54D16*
X6040Y2548D02*
X5940Y2681D01*
G54D16*
X5893Y2548D02*
X5893Y2681D01*
G54D16*
X5806Y2548D02*
X5806Y2681D01*
G54D16*
X5846Y2681D02*
X5766Y2681D01*
G54D11*
X3661Y4249D02*
X2637Y4249D01*
G54D11*
X3677Y3757D02*
X2645Y3757D01*
G54D11*
G75*
G01X2641Y2334D02*
G03X2641Y1834I0J-250D01*
G01*
G54D11*
G75*
G01X3641Y1834D02*
G03X3641Y2334I0J250D01*
G01*
G54D11*
X3645Y2334D02*
X2621Y2334D01*
G54D11*
X3661Y1842D02*
X2629Y1842D01*
M02*
