%FSLAX32Y32*%
%MOMM*%
%LNLOETSTOP2*%
G71*
G01*
%ADD10C, 0.20*%
%ADD11C, 2.10*%
%ADD12C, 2.86*%
%ADD13C, 2.86*%
%ADD14C, 0.95*%
%ADD15C, 0.96*%
%ADD16C, 3.60*%
%ADD17C, 5.60*%
%ADD18C, 2.60*%
%ADD19C, 2.80*%
%LPD*%
G54D10*
X0Y0D02*
X12000Y0D01*
X12000Y9000D01*
X0Y9000D01*
X0Y0D01*
G54D10*
X0Y0D02*
X12000Y0D01*
X12000Y9000D01*
X0Y9000D01*
X0Y0D01*
G54D11*
X9340Y8375D02*
X9340Y8225D01*
G54D11*
X9140Y8375D02*
X9140Y8225D01*
G54D11*
X8940Y8375D02*
X8940Y8225D01*
G54D11*
X8740Y8375D02*
X8740Y8225D01*
G54D11*
X8540Y8375D02*
X8540Y8225D01*
G54D11*
X8340Y8375D02*
X8340Y8225D01*
G54D11*
X8140Y8375D02*
X8140Y8225D01*
G54D11*
X7940Y8375D02*
X7940Y8225D01*
G54D11*
X7740Y8375D02*
X7740Y8225D01*
G54D11*
X7540Y8375D02*
X7540Y8225D01*
G54D11*
X7340Y8375D02*
X7340Y8225D01*
G54D11*
X7140Y8375D02*
X7140Y8225D01*
G54D11*
X6940Y8375D02*
X6940Y8225D01*
G54D11*
X6740Y8375D02*
X6740Y8225D01*
X10840Y7600D02*
G54D12*
D03*
X10840Y7300D02*
G54D13*
D03*
X10090Y7600D02*
G54D13*
D03*
X10090Y7300D02*
G54D13*
D03*
X9440Y7600D02*
G54D13*
D03*
X9440Y7300D02*
G54D13*
D03*
G36*
X9598Y4282D02*
X9598Y4168D01*
X9182Y4168D01*
X9182Y4282D01*
X9598Y4282D01*
G37*
G36*
X9698Y4132D02*
X9698Y4018D01*
X9282Y4018D01*
X9282Y4132D01*
X9698Y4132D01*
G37*
G36*
X9598Y3982D02*
X9598Y3868D01*
X9182Y3868D01*
X9182Y3982D01*
X9598Y3982D01*
G37*
G36*
X9698Y3832D02*
X9698Y3718D01*
X9282Y3718D01*
X9282Y3832D01*
X9698Y3832D01*
G37*
G36*
X8023Y4282D02*
X8023Y4168D01*
X7607Y4168D01*
X7607Y4282D01*
X8023Y4282D01*
G37*
G36*
X8123Y4132D02*
X8123Y4018D01*
X7707Y4018D01*
X7707Y4132D01*
X8123Y4132D01*
G37*
G36*
X8023Y3982D02*
X8023Y3868D01*
X7607Y3868D01*
X7607Y3982D01*
X8023Y3982D01*
G37*
G36*
X8123Y3832D02*
X8123Y3718D01*
X7707Y3718D01*
X7707Y3832D01*
X8123Y3832D01*
G37*
G36*
X6398Y4280D02*
X6398Y4170D01*
X5982Y4170D01*
X5982Y4280D01*
X6398Y4280D01*
G37*
G36*
X6498Y4130D02*
X6498Y4020D01*
X6082Y4020D01*
X6082Y4130D01*
X6498Y4130D01*
G37*
G36*
X6398Y3980D02*
X6398Y3870D01*
X5982Y3870D01*
X5982Y3980D01*
X6398Y3980D01*
G37*
G36*
X6498Y3830D02*
X6498Y3720D01*
X6082Y3720D01*
X6082Y3830D01*
X6498Y3830D01*
G37*
G36*
X9598Y2382D02*
X9598Y2268D01*
X9182Y2268D01*
X9182Y2382D01*
X9598Y2382D01*
G37*
G36*
X9698Y2232D02*
X9698Y2118D01*
X9282Y2118D01*
X9282Y2232D01*
X9698Y2232D01*
G37*
G36*
X9598Y2082D02*
X9598Y1968D01*
X9182Y1968D01*
X9182Y2082D01*
X9598Y2082D01*
G37*
G36*
X9698Y1932D02*
X9698Y1818D01*
X9282Y1818D01*
X9282Y1932D01*
X9698Y1932D01*
G37*
G36*
X6398Y2380D02*
X6398Y2270D01*
X5982Y2270D01*
X5982Y2380D01*
X6398Y2380D01*
G37*
G36*
X6498Y2230D02*
X6498Y2120D01*
X6082Y2120D01*
X6082Y2230D01*
X6498Y2230D01*
G37*
G36*
X6398Y2080D02*
X6398Y1970D01*
X5982Y1970D01*
X5982Y2080D01*
X6398Y2080D01*
G37*
G36*
X6498Y1930D02*
X6498Y1820D01*
X6082Y1820D01*
X6082Y1930D01*
X6498Y1930D01*
G37*
G54D14*
X2490Y4175D02*
X3890Y4175D01*
G54D14*
X3865Y4050D02*
X2265Y4050D01*
G54D14*
X2465Y3925D02*
X3928Y3925D01*
G54D14*
X3865Y3800D02*
X2290Y3800D01*
G54D14*
X2490Y2275D02*
X3890Y2275D01*
G54D14*
X3865Y2150D02*
X2265Y2150D01*
G54D14*
X2465Y2025D02*
X3928Y2025D01*
G54D15*
X3865Y1900D02*
X2290Y1900D01*
X11440Y5700D02*
G54D16*
D03*
X8340Y500D02*
G54D16*
D03*
X840Y3400D02*
G54D17*
D03*
X440Y8500D02*
G54D16*
D03*
X8690Y6500D02*
G54D18*
D03*
X8440Y6500D02*
G54D18*
D03*
X8190Y6500D02*
G54D18*
D03*
X7690Y6500D02*
G54D18*
D03*
X7440Y6500D02*
G54D18*
D03*
X7190Y6500D02*
G54D18*
D03*
X6940Y6500D02*
G54D18*
D03*
X6690Y6500D02*
G54D18*
D03*
X6440Y6500D02*
G54D18*
D03*
X5940Y6500D02*
G54D18*
D03*
X5690Y6500D02*
G54D18*
D03*
X5440Y6500D02*
G54D18*
D03*
X5190Y6500D02*
G54D18*
D03*
X2015Y6800D02*
G54D18*
D03*
X2840Y6800D02*
G54D18*
D03*
X10890Y4650D02*
G54D19*
D03*
X11640Y4650D02*
G54D19*
D03*
X11640Y5050D02*
G54D19*
D03*
X10890Y5050D02*
G54D19*
D03*
X9990Y5700D02*
G54D19*
D03*
X10740Y5700D02*
G54D19*
D03*
X9990Y6200D02*
G54D19*
D03*
X10740Y6200D02*
G54D19*
D03*
X2491Y6197D02*
G54D19*
D03*
X1666Y6197D02*
G54D19*
D03*
X2291Y5547D02*
G54D19*
D03*
X1541Y5547D02*
G54D19*
D03*
X2591Y5247D02*
G54D19*
D03*
X1541Y5247D02*
G54D19*
D03*
X2141Y5872D02*
G54D19*
D03*
X1241Y5872D02*
G54D19*
D03*
X3567Y5871D02*
G54D19*
D03*
X3567Y6621D02*
G54D19*
D03*
G36*
X9580Y6360D02*
X9300Y6360D01*
X9300Y6640D01*
X9580Y6640D01*
X9580Y6360D01*
G37*
G36*
X940Y6695D02*
X940Y6875D01*
X1120Y6875D01*
X1120Y6695D01*
X940Y6695D01*
G37*
G36*
X940Y6975D02*
X940Y7155D01*
X1120Y7155D01*
X1120Y6975D01*
X940Y6975D01*
G37*
G36*
X9570Y5321D02*
X9494Y5245D01*
X9386Y5245D01*
X9310Y5321D01*
X9310Y5429D01*
X9386Y5505D01*
X9494Y5505D01*
X9570Y5429D01*
X9570Y5321D01*
G37*
M02*
